<?xml version="1.0" encoding="utf-8" standalone="no"?>
<!DOCTYPE svg PUBLIC "-//W3C//DTD SVG 1.1//EN"
  "http://www.w3.org/Graphics/SVG/1.1/DTD/svg11.dtd">
<svg xmlns:xlink="http://www.w3.org/1999/xlink" width="720pt" height="432pt" viewBox="0 0 720 432" xmlns="http://www.w3.org/2000/svg" version="1.1">
 <metadata>
  <rdf:RDF xmlns:dc="http://purl.org/dc/elements/1.1/" xmlns:cc="http://creativecommons.org/ns#" xmlns:rdf="http://www.w3.org/1999/02/22-rdf-syntax-ns#">
   <cc:Work>
    <dc:type rdf:resource="http://purl.org/dc/dcmitype/StillImage"/>
    <dc:date>2026-03-21T17:21:23.181170</dc:date>
    <dc:format>image/svg+xml</dc:format>
    <dc:creator>
     <cc:Agent>
      <dc:title>Matplotlib v3.10.6, https://matplotlib.org/</dc:title>
     </cc:Agent>
    </dc:creator>
   </cc:Work>
  </rdf:RDF>
 </metadata>
 <defs>
  <style type="text/css">*{stroke-linejoin: round; stroke-linecap: butt}</style>
 </defs>
 <g id="figure_1">
  <g id="patch_1">
   <path d="M 0 432 
L 720 432 
L 720 0 
L 0 0 
z
" style="fill: #ffffff"/>
  </g>
  <g id="axes_1">
   <g id="patch_2">
    <path d="M 59.24 390.04 
L 709.2 390.04 
L 709.2 26.88 
L 59.24 26.88 
z
" style="fill: #ffffff"/>
   </g>
   <g id="matplotlib.axis_1">
    <g id="xtick_1">
     <g id="line2d_1">
      <path d="M 182.786116 390.04 
L 182.786116 26.88 
" clip-path="url(#pd6821d86d5)" style="fill: none; stroke: #b0b0b0; stroke-opacity: 0.3; stroke-width: 0.8; stroke-linecap: square"/>
     </g>
     <g id="line2d_2">
      <defs>
       <path id="m931bd4c326" d="M 0 0 
L 0 3.5 
" style="stroke: #000000; stroke-width: 0.8"/>
      </defs>
      <g>
       <use xlink:href="#m931bd4c326" x="182.786116" y="390.04" style="stroke: #000000; stroke-width: 0.8"/>
      </g>
     </g>
     <g id="text_1">
      <text style="font-size: 10px; font-family: 'DejaVu Sans', 'Bitstream Vera Sans', 'Computer Modern Sans Serif', 'Lucida Grande', 'Verdana', 'Geneva', 'Lucid', 'Arial', 'Helvetica', 'Avant Garde', sans-serif; text-anchor: middle" x="182.786116" y="404.638438" transform="rotate(-0 182.786116 404.638438)">20</text>
     </g>
    </g>
    <g id="xtick_2">
     <g id="line2d_3">
      <path d="M 317.075372 390.04 
L 317.075372 26.88 
" clip-path="url(#pd6821d86d5)" style="fill: none; stroke: #b0b0b0; stroke-opacity: 0.3; stroke-width: 0.8; stroke-linecap: square"/>
     </g>
     <g id="line2d_4">
      <g>
       <use xlink:href="#m931bd4c326" x="317.075372" y="390.04" style="stroke: #000000; stroke-width: 0.8"/>
      </g>
     </g>
     <g id="text_2">
      <text style="font-size: 10px; font-family: 'DejaVu Sans', 'Bitstream Vera Sans', 'Computer Modern Sans Serif', 'Lucida Grande', 'Verdana', 'Geneva', 'Lucid', 'Arial', 'Helvetica', 'Avant Garde', sans-serif; text-anchor: middle" x="317.075372" y="404.638438" transform="rotate(-0 317.075372 404.638438)">40</text>
     </g>
    </g>
    <g id="xtick_3">
     <g id="line2d_5">
      <path d="M 451.364628 390.04 
L 451.364628 26.88 
" clip-path="url(#pd6821d86d5)" style="fill: none; stroke: #b0b0b0; stroke-opacity: 0.3; stroke-width: 0.8; stroke-linecap: square"/>
     </g>
     <g id="line2d_6">
      <g>
       <use xlink:href="#m931bd4c326" x="451.364628" y="390.04" style="stroke: #000000; stroke-width: 0.8"/>
      </g>
     </g>
     <g id="text_3">
      <text style="font-size: 10px; font-family: 'DejaVu Sans', 'Bitstream Vera Sans', 'Computer Modern Sans Serif', 'Lucida Grande', 'Verdana', 'Geneva', 'Lucid', 'Arial', 'Helvetica', 'Avant Garde', sans-serif; text-anchor: middle" x="451.364628" y="404.638438" transform="rotate(-0 451.364628 404.638438)">60</text>
     </g>
    </g>
    <g id="xtick_4">
     <g id="line2d_7">
      <path d="M 585.653884 390.04 
L 585.653884 26.88 
" clip-path="url(#pd6821d86d5)" style="fill: none; stroke: #b0b0b0; stroke-opacity: 0.3; stroke-width: 0.8; stroke-linecap: square"/>
     </g>
     <g id="line2d_8">
      <g>
       <use xlink:href="#m931bd4c326" x="585.653884" y="390.04" style="stroke: #000000; stroke-width: 0.8"/>
      </g>
     </g>
     <g id="text_4">
      <text style="font-size: 10px; font-family: 'DejaVu Sans', 'Bitstream Vera Sans', 'Computer Modern Sans Serif', 'Lucida Grande', 'Verdana', 'Geneva', 'Lucid', 'Arial', 'Helvetica', 'Avant Garde', sans-serif; text-anchor: middle" x="585.653884" y="404.638438" transform="rotate(-0 585.653884 404.638438)">80</text>
     </g>
    </g>
    <g id="text_5">
     <text style="font-size: 10px; font-family: 'DejaVu Sans', 'Bitstream Vera Sans', 'Computer Modern Sans Serif', 'Lucida Grande', 'Verdana', 'Geneva', 'Lucid', 'Arial', 'Helvetica', 'Avant Garde', sans-serif; text-anchor: middle" x="384.22" y="418.316562" transform="rotate(-0 384.22 418.316562)">Residue index i</text>
    </g>
   </g>
   <g id="matplotlib.axis_2">
    <g id="ytick_1">
     <g id="line2d_9">
      <path d="M 59.24 362.763391 
L 709.2 362.763391 
" clip-path="url(#pd6821d86d5)" style="fill: none; stroke: #b0b0b0; stroke-opacity: 0.3; stroke-width: 0.8; stroke-linecap: square"/>
     </g>
     <g id="line2d_10">
      <defs>
       <path id="m70f9f4fa0a" d="M 0 0 
L -3.5 0 
" style="stroke: #000000; stroke-width: 0.8"/>
      </defs>
      <g>
       <use xlink:href="#m70f9f4fa0a" x="59.24" y="362.763391" style="stroke: #000000; stroke-width: 0.8"/>
      </g>
     </g>
     <g id="text_6">
      <text style="font-size: 10px; font-family: 'DejaVu Sans', 'Bitstream Vera Sans', 'Computer Modern Sans Serif', 'Lucida Grande', 'Verdana', 'Geneva', 'Lucid', 'Arial', 'Helvetica', 'Avant Garde', sans-serif; text-anchor: end" x="52.24" y="366.56261" transform="rotate(-0 52.24 366.56261)">−150</text>
     </g>
    </g>
    <g id="ytick_2">
     <g id="line2d_11">
      <path d="M 59.24 312.921135 
L 709.2 312.921135 
" clip-path="url(#pd6821d86d5)" style="fill: none; stroke: #b0b0b0; stroke-opacity: 0.3; stroke-width: 0.8; stroke-linecap: square"/>
     </g>
     <g id="line2d_12">
      <g>
       <use xlink:href="#m70f9f4fa0a" x="59.24" y="312.921135" style="stroke: #000000; stroke-width: 0.8"/>
      </g>
     </g>
     <g id="text_7">
      <text style="font-size: 10px; font-family: 'DejaVu Sans', 'Bitstream Vera Sans', 'Computer Modern Sans Serif', 'Lucida Grande', 'Verdana', 'Geneva', 'Lucid', 'Arial', 'Helvetica', 'Avant Garde', sans-serif; text-anchor: end" x="52.24" y="316.720354" transform="rotate(-0 52.24 316.720354)">−100</text>
     </g>
    </g>
    <g id="ytick_3">
     <g id="line2d_13">
      <path d="M 59.24 263.078878 
L 709.2 263.078878 
" clip-path="url(#pd6821d86d5)" style="fill: none; stroke: #b0b0b0; stroke-opacity: 0.3; stroke-width: 0.8; stroke-linecap: square"/>
     </g>
     <g id="line2d_14">
      <g>
       <use xlink:href="#m70f9f4fa0a" x="59.24" y="263.078878" style="stroke: #000000; stroke-width: 0.8"/>
      </g>
     </g>
     <g id="text_8">
      <text style="font-size: 10px; font-family: 'DejaVu Sans', 'Bitstream Vera Sans', 'Computer Modern Sans Serif', 'Lucida Grande', 'Verdana', 'Geneva', 'Lucid', 'Arial', 'Helvetica', 'Avant Garde', sans-serif; text-anchor: end" x="52.24" y="266.878097" transform="rotate(-0 52.24 266.878097)">−50</text>
     </g>
    </g>
    <g id="ytick_4">
     <g id="line2d_15">
      <path d="M 59.24 213.236622 
L 709.2 213.236622 
" clip-path="url(#pd6821d86d5)" style="fill: none; stroke: #b0b0b0; stroke-opacity: 0.3; stroke-width: 0.8; stroke-linecap: square"/>
     </g>
     <g id="line2d_16">
      <g>
       <use xlink:href="#m70f9f4fa0a" x="59.24" y="213.236622" style="stroke: #000000; stroke-width: 0.8"/>
      </g>
     </g>
     <g id="text_9">
      <text style="font-size: 10px; font-family: 'DejaVu Sans', 'Bitstream Vera Sans', 'Computer Modern Sans Serif', 'Lucida Grande', 'Verdana', 'Geneva', 'Lucid', 'Arial', 'Helvetica', 'Avant Garde', sans-serif; text-anchor: end" x="52.24" y="217.035841" transform="rotate(-0 52.24 217.035841)">0</text>
     </g>
    </g>
    <g id="ytick_5">
     <g id="line2d_17">
      <path d="M 59.24 163.394365 
L 709.2 163.394365 
" clip-path="url(#pd6821d86d5)" style="fill: none; stroke: #b0b0b0; stroke-opacity: 0.3; stroke-width: 0.8; stroke-linecap: square"/>
     </g>
     <g id="line2d_18">
      <g>
       <use xlink:href="#m70f9f4fa0a" x="59.24" y="163.394365" style="stroke: #000000; stroke-width: 0.8"/>
      </g>
     </g>
     <g id="text_10">
      <text style="font-size: 10px; font-family: 'DejaVu Sans', 'Bitstream Vera Sans', 'Computer Modern Sans Serif', 'Lucida Grande', 'Verdana', 'Geneva', 'Lucid', 'Arial', 'Helvetica', 'Avant Garde', sans-serif; text-anchor: end" x="52.24" y="167.193584" transform="rotate(-0 52.24 167.193584)">50</text>
     </g>
    </g>
    <g id="ytick_6">
     <g id="line2d_19">
      <path d="M 59.24 113.552109 
L 709.2 113.552109 
" clip-path="url(#pd6821d86d5)" style="fill: none; stroke: #b0b0b0; stroke-opacity: 0.3; stroke-width: 0.8; stroke-linecap: square"/>
     </g>
     <g id="line2d_20">
      <g>
       <use xlink:href="#m70f9f4fa0a" x="59.24" y="113.552109" style="stroke: #000000; stroke-width: 0.8"/>
      </g>
     </g>
     <g id="text_11">
      <text style="font-size: 10px; font-family: 'DejaVu Sans', 'Bitstream Vera Sans', 'Computer Modern Sans Serif', 'Lucida Grande', 'Verdana', 'Geneva', 'Lucid', 'Arial', 'Helvetica', 'Avant Garde', sans-serif; text-anchor: end" x="52.24" y="117.351328" transform="rotate(-0 52.24 117.351328)">100</text>
     </g>
    </g>
    <g id="ytick_7">
     <g id="line2d_21">
      <path d="M 59.24 63.709852 
L 709.2 63.709852 
" clip-path="url(#pd6821d86d5)" style="fill: none; stroke: #b0b0b0; stroke-opacity: 0.3; stroke-width: 0.8; stroke-linecap: square"/>
     </g>
     <g id="line2d_22">
      <g>
       <use xlink:href="#m70f9f4fa0a" x="59.24" y="63.709852" style="stroke: #000000; stroke-width: 0.8"/>
      </g>
     </g>
     <g id="text_12">
      <text style="font-size: 10px; font-family: 'DejaVu Sans', 'Bitstream Vera Sans', 'Computer Modern Sans Serif', 'Lucida Grande', 'Verdana', 'Geneva', 'Lucid', 'Arial', 'Helvetica', 'Avant Garde', sans-serif; text-anchor: end" x="52.24" y="67.509071" transform="rotate(-0 52.24 67.509071)">150</text>
     </g>
    </g>
    <g id="text_13">
     <text style="font-size: 10px; font-family: 'DejaVu Sans', 'Bitstream Vera Sans', 'Computer Modern Sans Serif', 'Lucida Grande', 'Verdana', 'Geneva', 'Lucid', 'Arial', 'Helvetica', 'Avant Garde', sans-serif; text-anchor: middle" x="18.693125" y="208.46" transform="rotate(-90 18.693125 208.46)">Signed angle (deg)</text>
    </g>
   </g>
   <g id="line2d_23">
    <path d="M 88.783636 89.710073 
L 95.498099 321.973747 
L 102.212562 361.786894 
L 108.927025 314.428553 
L 115.641488 135.53742 
L 122.35595 354.346777 
L 129.070413 371.619531 
L 135.784876 353.815242 
L 142.499339 109.292321 
L 149.213802 156.239384 
L 155.928264 368.406176 
L 162.642727 363.274987 
L 169.35719 328.573406 
L 176.071653 327.779098 
L 182.786116 348.716528 
L 189.500579 359.743339 
L 196.215041 316.734123 
L 202.929504 300.251885 
L 209.643967 284.757781 
L 216.35843 112.845308 
L 223.072893 321.21739 
L 229.787355 300.365653 
L 236.501818 336.0125 
L 243.216281 127.261323 
L 249.930744 373.532727 
L 256.645207 334.176666 
L 263.359669 322.039515 
L 270.074132 323.685621 
L 276.788595 336.645384 
L 283.503058 359.06551 
L 290.217521 369.080355 
L 296.931983 305.91875 
L 303.646446 302.220533 
L 310.360909 309.368294 
L 317.075372 303.368915 
L 323.789835 150.531926 
L 330.504298 307.628675 
L 337.21876 287.52956 
L 343.933223 294.072963 
L 350.647686 317.152717 
L 357.362149 356.771615 
L 364.076612 359.029656 
L 370.791074 333.476248 
L 377.505537 333.850453 
L 384.22 285.284051 
L 390.934463 100.620085 
L 397.648926 125.303661 
L 404.363388 322.695189 
L 411.077851 163.308475 
L 417.792314 353.069419 
L 424.506777 65.424467 
L 431.22124 322.588002 
L 437.935702 326.267516 
L 444.650165 336.452689 
L 451.364628 309.894902 
L 458.079091 305.391986 
L 464.793554 325.230979 
L 471.508017 296.911638 
L 478.222479 312.515785 
L 484.936942 339.392528 
L 491.651405 313.770208 
L 498.365868 337.538134 
L 505.080331 318.736877 
L 511.794793 336.84533 
L 518.509256 347.586838 
L 525.223719 334.563261 
L 531.938182 336.62469 
L 538.652645 324.312942 
L 545.367107 328.354374 
L 552.08157 317.273053 
L 558.796033 118.712386 
L 565.510496 145.298582 
L 572.224959 107.409344 
L 578.939421 331.017189 
L 585.653884 43.387273 
L 592.368347 98.952499 
L 599.08281 97.413616 
L 605.797273 281.27415 
L 612.511736 76.286608 
L 619.226198 293.400046 
L 625.940661 292.495131 
L 632.655124 330.050385 
L 639.369587 353.905066 
L 646.08405 363.680664 
L 652.798512 325.060813 
L 659.512975 80.460561 
L 666.227438 325.38163 
L 672.941901 298.767321 
L 679.656364 288.39108 
" clip-path="url(#pd6821d86d5)" style="fill: none; stroke: #0000ff; stroke-width: 1.5; stroke-linecap: square"/>
   </g>
   <g id="patch_3">
    <path d="M 59.24 390.04 
L 59.24 26.88 
" style="fill: none; stroke: #000000; stroke-width: 0.8; stroke-linejoin: miter; stroke-linecap: square"/>
   </g>
   <g id="patch_4">
    <path d="M 709.2 390.04 
L 709.2 26.88 
" style="fill: none; stroke: #000000; stroke-width: 0.8; stroke-linejoin: miter; stroke-linecap: square"/>
   </g>
   <g id="patch_5">
    <path d="M 59.24 390.04 
L 709.2 390.04 
" style="fill: none; stroke: #000000; stroke-width: 0.8; stroke-linejoin: miter; stroke-linecap: square"/>
   </g>
   <g id="patch_6">
    <path d="M 59.24 26.88 
L 709.2 26.88 
" style="fill: none; stroke: #000000; stroke-width: 0.8; stroke-linejoin: miter; stroke-linecap: square"/>
   </g>
   <g id="text_14">
    <text style="font-size: 10px; font-family: 'DejaVu Sans', 'Bitstream Vera Sans', 'Computer Modern Sans Serif', 'Lucida Grande', 'Verdana', 'Geneva', 'Lucid', 'Arial', 'Helvetica', 'Avant Garde', sans-serif; text-anchor: start" x="65.7396" y="38.110037" transform="rotate(-0 65.7396 38.110037)">1FNA.pdb</text>
   </g>
   <g id="text_15">
    <text style="font-size: 12px; font-family: 'DejaVu Sans', 'Bitstream Vera Sans', 'Computer Modern Sans Serif', 'Lucida Grande', 'Verdana', 'Geneva', 'Lucid', 'Arial', 'Helvetica', 'Avant Garde', sans-serif; text-anchor: middle" x="384.22" y="20.88" transform="rotate(-0 384.22 20.88)">Adjacent plane signed angles</text>
   </g>
  </g>
 </g>
 <defs>
  <clipPath id="pd6821d86d5">
   <rect x="59.24" y="26.88" width="649.96" height="363.16"/>
  </clipPath>
 </defs>
</svg>
