<?xml version="1.0" encoding="utf-8" standalone="no"?>
<!DOCTYPE svg PUBLIC "-//W3C//DTD SVG 1.1//EN"
  "http://www.w3.org/Graphics/SVG/1.1/DTD/svg11.dtd">
<svg xmlns:xlink="http://www.w3.org/1999/xlink" width="720pt" height="432pt" viewBox="0 0 720 432" xmlns="http://www.w3.org/2000/svg" version="1.1">
 <metadata>
  <rdf:RDF xmlns:dc="http://purl.org/dc/elements/1.1/" xmlns:cc="http://creativecommons.org/ns#" xmlns:rdf="http://www.w3.org/1999/02/22-rdf-syntax-ns#">
   <cc:Work>
    <dc:type rdf:resource="http://purl.org/dc/dcmitype/StillImage"/>
    <dc:date>2026-03-21T17:21:24.481137</dc:date>
    <dc:format>image/svg+xml</dc:format>
    <dc:creator>
     <cc:Agent>
      <dc:title>Matplotlib v3.10.6, https://matplotlib.org/</dc:title>
     </cc:Agent>
    </dc:creator>
   </cc:Work>
  </rdf:RDF>
 </metadata>
 <defs>
  <style type="text/css">*{stroke-linejoin: round; stroke-linecap: butt}</style>
 </defs>
 <g id="figure_1">
  <g id="patch_1">
   <path d="M 0 432 
L 720 432 
L 720 0 
L 0 0 
z
" style="fill: #ffffff"/>
  </g>
  <g id="axes_1">
   <g id="patch_2">
    <path d="M 59.24 390.04 
L 709.2 390.04 
L 709.2 26.88 
L 59.24 26.88 
z
" style="fill: #ffffff"/>
   </g>
   <g id="matplotlib.axis_1">
    <g id="xtick_1">
     <g id="line2d_1">
      <path d="M 86.954309 390.04 
L 86.954309 26.88 
" clip-path="url(#p0a84ee0ba2)" style="fill: none; stroke: #b0b0b0; stroke-opacity: 0.3; stroke-width: 0.8; stroke-linecap: square"/>
     </g>
     <g id="line2d_2">
      <defs>
       <path id="m2311c99d5a" d="M 0 0 
L 0 3.5 
" style="stroke: #000000; stroke-width: 0.8"/>
      </defs>
      <g>
       <use xlink:href="#m2311c99d5a" x="86.954309" y="390.04" style="stroke: #000000; stroke-width: 0.8"/>
      </g>
     </g>
     <g id="text_1">
      <text style="font-size: 10px; font-family: 'DejaVu Sans', 'Bitstream Vera Sans', 'Computer Modern Sans Serif', 'Lucida Grande', 'Verdana', 'Geneva', 'Lucid', 'Arial', 'Helvetica', 'Avant Garde', sans-serif; text-anchor: middle" x="86.954309" y="404.638438" transform="rotate(-0 86.954309 404.638438)">0</text>
     </g>
    </g>
    <g id="xtick_2">
     <g id="line2d_3">
      <path d="M 178.420675 390.04 
L 178.420675 26.88 
" clip-path="url(#p0a84ee0ba2)" style="fill: none; stroke: #b0b0b0; stroke-opacity: 0.3; stroke-width: 0.8; stroke-linecap: square"/>
     </g>
     <g id="line2d_4">
      <g>
       <use xlink:href="#m2311c99d5a" x="178.420675" y="390.04" style="stroke: #000000; stroke-width: 0.8"/>
      </g>
     </g>
     <g id="text_2">
      <text style="font-size: 10px; font-family: 'DejaVu Sans', 'Bitstream Vera Sans', 'Computer Modern Sans Serif', 'Lucida Grande', 'Verdana', 'Geneva', 'Lucid', 'Arial', 'Helvetica', 'Avant Garde', sans-serif; text-anchor: middle" x="178.420675" y="404.638438" transform="rotate(-0 178.420675 404.638438)">50</text>
     </g>
    </g>
    <g id="xtick_3">
     <g id="line2d_5">
      <path d="M 269.887042 390.04 
L 269.887042 26.88 
" clip-path="url(#p0a84ee0ba2)" style="fill: none; stroke: #b0b0b0; stroke-opacity: 0.3; stroke-width: 0.8; stroke-linecap: square"/>
     </g>
     <g id="line2d_6">
      <g>
       <use xlink:href="#m2311c99d5a" x="269.887042" y="390.04" style="stroke: #000000; stroke-width: 0.8"/>
      </g>
     </g>
     <g id="text_3">
      <text style="font-size: 10px; font-family: 'DejaVu Sans', 'Bitstream Vera Sans', 'Computer Modern Sans Serif', 'Lucida Grande', 'Verdana', 'Geneva', 'Lucid', 'Arial', 'Helvetica', 'Avant Garde', sans-serif; text-anchor: middle" x="269.887042" y="404.638438" transform="rotate(-0 269.887042 404.638438)">100</text>
     </g>
    </g>
    <g id="xtick_4">
     <g id="line2d_7">
      <path d="M 361.353408 390.04 
L 361.353408 26.88 
" clip-path="url(#p0a84ee0ba2)" style="fill: none; stroke: #b0b0b0; stroke-opacity: 0.3; stroke-width: 0.8; stroke-linecap: square"/>
     </g>
     <g id="line2d_8">
      <g>
       <use xlink:href="#m2311c99d5a" x="361.353408" y="390.04" style="stroke: #000000; stroke-width: 0.8"/>
      </g>
     </g>
     <g id="text_4">
      <text style="font-size: 10px; font-family: 'DejaVu Sans', 'Bitstream Vera Sans', 'Computer Modern Sans Serif', 'Lucida Grande', 'Verdana', 'Geneva', 'Lucid', 'Arial', 'Helvetica', 'Avant Garde', sans-serif; text-anchor: middle" x="361.353408" y="404.638438" transform="rotate(-0 361.353408 404.638438)">150</text>
     </g>
    </g>
    <g id="xtick_5">
     <g id="line2d_9">
      <path d="M 452.819775 390.04 
L 452.819775 26.88 
" clip-path="url(#p0a84ee0ba2)" style="fill: none; stroke: #b0b0b0; stroke-opacity: 0.3; stroke-width: 0.8; stroke-linecap: square"/>
     </g>
     <g id="line2d_10">
      <g>
       <use xlink:href="#m2311c99d5a" x="452.819775" y="390.04" style="stroke: #000000; stroke-width: 0.8"/>
      </g>
     </g>
     <g id="text_5">
      <text style="font-size: 10px; font-family: 'DejaVu Sans', 'Bitstream Vera Sans', 'Computer Modern Sans Serif', 'Lucida Grande', 'Verdana', 'Geneva', 'Lucid', 'Arial', 'Helvetica', 'Avant Garde', sans-serif; text-anchor: middle" x="452.819775" y="404.638438" transform="rotate(-0 452.819775 404.638438)">200</text>
     </g>
    </g>
    <g id="xtick_6">
     <g id="line2d_11">
      <path d="M 544.286141 390.04 
L 544.286141 26.88 
" clip-path="url(#p0a84ee0ba2)" style="fill: none; stroke: #b0b0b0; stroke-opacity: 0.3; stroke-width: 0.8; stroke-linecap: square"/>
     </g>
     <g id="line2d_12">
      <g>
       <use xlink:href="#m2311c99d5a" x="544.286141" y="390.04" style="stroke: #000000; stroke-width: 0.8"/>
      </g>
     </g>
     <g id="text_6">
      <text style="font-size: 10px; font-family: 'DejaVu Sans', 'Bitstream Vera Sans', 'Computer Modern Sans Serif', 'Lucida Grande', 'Verdana', 'Geneva', 'Lucid', 'Arial', 'Helvetica', 'Avant Garde', sans-serif; text-anchor: middle" x="544.286141" y="404.638438" transform="rotate(-0 544.286141 404.638438)">250</text>
     </g>
    </g>
    <g id="xtick_7">
     <g id="line2d_13">
      <path d="M 635.752508 390.04 
L 635.752508 26.88 
" clip-path="url(#p0a84ee0ba2)" style="fill: none; stroke: #b0b0b0; stroke-opacity: 0.3; stroke-width: 0.8; stroke-linecap: square"/>
     </g>
     <g id="line2d_14">
      <g>
       <use xlink:href="#m2311c99d5a" x="635.752508" y="390.04" style="stroke: #000000; stroke-width: 0.8"/>
      </g>
     </g>
     <g id="text_7">
      <text style="font-size: 10px; font-family: 'DejaVu Sans', 'Bitstream Vera Sans', 'Computer Modern Sans Serif', 'Lucida Grande', 'Verdana', 'Geneva', 'Lucid', 'Arial', 'Helvetica', 'Avant Garde', sans-serif; text-anchor: middle" x="635.752508" y="404.638438" transform="rotate(-0 635.752508 404.638438)">300</text>
     </g>
    </g>
    <g id="text_8">
     <text style="font-size: 10px; font-family: 'DejaVu Sans', 'Bitstream Vera Sans', 'Computer Modern Sans Serif', 'Lucida Grande', 'Verdana', 'Geneva', 'Lucid', 'Arial', 'Helvetica', 'Avant Garde', sans-serif; text-anchor: middle" x="384.22" y="418.316562" transform="rotate(-0 384.22 418.316562)">Residue index i</text>
    </g>
   </g>
   <g id="matplotlib.axis_2">
    <g id="ytick_1">
     <g id="line2d_15">
      <path d="M 59.24 361.071662 
L 709.2 361.071662 
" clip-path="url(#p0a84ee0ba2)" style="fill: none; stroke: #b0b0b0; stroke-opacity: 0.3; stroke-width: 0.8; stroke-linecap: square"/>
     </g>
     <g id="line2d_16">
      <defs>
       <path id="m460020bd80" d="M 0 0 
L -3.5 0 
" style="stroke: #000000; stroke-width: 0.8"/>
      </defs>
      <g>
       <use xlink:href="#m460020bd80" x="59.24" y="361.071662" style="stroke: #000000; stroke-width: 0.8"/>
      </g>
     </g>
     <g id="text_9">
      <text style="font-size: 10px; font-family: 'DejaVu Sans', 'Bitstream Vera Sans', 'Computer Modern Sans Serif', 'Lucida Grande', 'Verdana', 'Geneva', 'Lucid', 'Arial', 'Helvetica', 'Avant Garde', sans-serif; text-anchor: end" x="52.24" y="364.870881" transform="rotate(-0 52.24 364.870881)">−150</text>
     </g>
    </g>
    <g id="ytick_2">
     <g id="line2d_17">
      <path d="M 59.24 311.323696 
L 709.2 311.323696 
" clip-path="url(#p0a84ee0ba2)" style="fill: none; stroke: #b0b0b0; stroke-opacity: 0.3; stroke-width: 0.8; stroke-linecap: square"/>
     </g>
     <g id="line2d_18">
      <g>
       <use xlink:href="#m460020bd80" x="59.24" y="311.323696" style="stroke: #000000; stroke-width: 0.8"/>
      </g>
     </g>
     <g id="text_10">
      <text style="font-size: 10px; font-family: 'DejaVu Sans', 'Bitstream Vera Sans', 'Computer Modern Sans Serif', 'Lucida Grande', 'Verdana', 'Geneva', 'Lucid', 'Arial', 'Helvetica', 'Avant Garde', sans-serif; text-anchor: end" x="52.24" y="315.122915" transform="rotate(-0 52.24 315.122915)">−100</text>
     </g>
    </g>
    <g id="ytick_3">
     <g id="line2d_19">
      <path d="M 59.24 261.57573 
L 709.2 261.57573 
" clip-path="url(#p0a84ee0ba2)" style="fill: none; stroke: #b0b0b0; stroke-opacity: 0.3; stroke-width: 0.8; stroke-linecap: square"/>
     </g>
     <g id="line2d_20">
      <g>
       <use xlink:href="#m460020bd80" x="59.24" y="261.57573" style="stroke: #000000; stroke-width: 0.8"/>
      </g>
     </g>
     <g id="text_11">
      <text style="font-size: 10px; font-family: 'DejaVu Sans', 'Bitstream Vera Sans', 'Computer Modern Sans Serif', 'Lucida Grande', 'Verdana', 'Geneva', 'Lucid', 'Arial', 'Helvetica', 'Avant Garde', sans-serif; text-anchor: end" x="52.24" y="265.374949" transform="rotate(-0 52.24 265.374949)">−50</text>
     </g>
    </g>
    <g id="ytick_4">
     <g id="line2d_21">
      <path d="M 59.24 211.827765 
L 709.2 211.827765 
" clip-path="url(#p0a84ee0ba2)" style="fill: none; stroke: #b0b0b0; stroke-opacity: 0.3; stroke-width: 0.8; stroke-linecap: square"/>
     </g>
     <g id="line2d_22">
      <g>
       <use xlink:href="#m460020bd80" x="59.24" y="211.827765" style="stroke: #000000; stroke-width: 0.8"/>
      </g>
     </g>
     <g id="text_12">
      <text style="font-size: 10px; font-family: 'DejaVu Sans', 'Bitstream Vera Sans', 'Computer Modern Sans Serif', 'Lucida Grande', 'Verdana', 'Geneva', 'Lucid', 'Arial', 'Helvetica', 'Avant Garde', sans-serif; text-anchor: end" x="52.24" y="215.626983" transform="rotate(-0 52.24 215.626983)">0</text>
     </g>
    </g>
    <g id="ytick_5">
     <g id="line2d_23">
      <path d="M 59.24 162.079799 
L 709.2 162.079799 
" clip-path="url(#p0a84ee0ba2)" style="fill: none; stroke: #b0b0b0; stroke-opacity: 0.3; stroke-width: 0.8; stroke-linecap: square"/>
     </g>
     <g id="line2d_24">
      <g>
       <use xlink:href="#m460020bd80" x="59.24" y="162.079799" style="stroke: #000000; stroke-width: 0.8"/>
      </g>
     </g>
     <g id="text_13">
      <text style="font-size: 10px; font-family: 'DejaVu Sans', 'Bitstream Vera Sans', 'Computer Modern Sans Serif', 'Lucida Grande', 'Verdana', 'Geneva', 'Lucid', 'Arial', 'Helvetica', 'Avant Garde', sans-serif; text-anchor: end" x="52.24" y="165.879018" transform="rotate(-0 52.24 165.879018)">50</text>
     </g>
    </g>
    <g id="ytick_6">
     <g id="line2d_25">
      <path d="M 59.24 112.331833 
L 709.2 112.331833 
" clip-path="url(#p0a84ee0ba2)" style="fill: none; stroke: #b0b0b0; stroke-opacity: 0.3; stroke-width: 0.8; stroke-linecap: square"/>
     </g>
     <g id="line2d_26">
      <g>
       <use xlink:href="#m460020bd80" x="59.24" y="112.331833" style="stroke: #000000; stroke-width: 0.8"/>
      </g>
     </g>
     <g id="text_14">
      <text style="font-size: 10px; font-family: 'DejaVu Sans', 'Bitstream Vera Sans', 'Computer Modern Sans Serif', 'Lucida Grande', 'Verdana', 'Geneva', 'Lucid', 'Arial', 'Helvetica', 'Avant Garde', sans-serif; text-anchor: end" x="52.24" y="116.131052" transform="rotate(-0 52.24 116.131052)">100</text>
     </g>
    </g>
    <g id="ytick_7">
     <g id="line2d_27">
      <path d="M 59.24 62.583868 
L 709.2 62.583868 
" clip-path="url(#p0a84ee0ba2)" style="fill: none; stroke: #b0b0b0; stroke-opacity: 0.3; stroke-width: 0.8; stroke-linecap: square"/>
     </g>
     <g id="line2d_28">
      <g>
       <use xlink:href="#m460020bd80" x="59.24" y="62.583868" style="stroke: #000000; stroke-width: 0.8"/>
      </g>
     </g>
     <g id="text_15">
      <text style="font-size: 10px; font-family: 'DejaVu Sans', 'Bitstream Vera Sans', 'Computer Modern Sans Serif', 'Lucida Grande', 'Verdana', 'Geneva', 'Lucid', 'Arial', 'Helvetica', 'Avant Garde', sans-serif; text-anchor: end" x="52.24" y="66.383086" transform="rotate(-0 52.24 66.383086)">150</text>
     </g>
    </g>
    <g id="text_16">
     <text style="font-size: 10px; font-family: 'DejaVu Sans', 'Bitstream Vera Sans', 'Computer Modern Sans Serif', 'Lucida Grande', 'Verdana', 'Geneva', 'Lucid', 'Arial', 'Helvetica', 'Avant Garde', sans-serif; text-anchor: middle" x="18.693125" y="208.46" transform="rotate(-90 18.693125 208.46)">Signed angle (deg)</text>
    </g>
   </g>
   <g id="line2d_29">
    <path d="M 88.783636 113.103837 
L 90.612964 336.14764 
L 92.442291 97.040743 
L 94.271618 305.654113 
L 96.100946 350.834916 
L 97.930273 104.038026 
L 99.7596 147.233251 
L 101.588928 370.950132 
L 103.418255 109.81864 
L 105.247582 308.573929 
L 107.07691 101.123686 
L 108.906237 74.765215 
L 110.735564 297.539495 
L 112.564892 122.64966 
L 114.394219 109.104492 
L 116.223546 128.385151 
L 118.052874 326.450221 
L 119.882201 124.959257 
L 121.711528 285.279375 
L 123.540856 350.615285 
L 125.370183 307.422507 
L 127.19951 94.819765 
L 129.028838 144.058864 
L 130.858165 150.871658 
L 132.687492 363.225729 
L 134.51682 276.290454 
L 136.346147 128.268097 
L 138.175474 94.734383 
L 140.004802 114.74639 
L 141.834129 123.55106 
L 143.663456 371.729142 
L 145.492784 299.086536 
L 147.322111 102.632431 
L 149.151438 112.138406 
L 150.980766 117.100134 
L 152.810093 114.756696 
L 154.63942 118.798954 
L 156.468748 117.28737 
L 158.298075 114.903406 
L 160.127402 114.445118 
L 161.95673 109.790153 
L 163.786057 119.445503 
L 165.615384 108.85982 
L 167.444712 112.29805 
L 169.274039 115.358398 
L 171.103366 112.789018 
L 172.932693 122.582226 
L 174.762021 109.160137 
L 176.591348 136.990817 
L 178.420675 115.872766 
L 180.250003 121.661147 
L 182.07933 120.802998 
L 183.908657 117.005706 
L 185.737985 128.100426 
L 187.567312 111.349423 
L 189.396639 110.697187 
L 191.225967 115.62804 
L 193.055294 115.984242 
L 194.884621 120.422676 
L 196.713949 104.939475 
L 198.543276 124.339225 
L 200.372603 113.171163 
L 202.201931 112.033966 
L 204.031258 96.694482 
L 205.860585 108.445951 
L 207.689913 104.380404 
L 209.51924 99.945355 
L 211.348567 134.365205 
L 213.177895 313.024791 
L 215.007222 111.110344 
L 216.836549 117.093945 
L 218.665877 106.496023 
L 220.495204 119.906024 
L 222.324531 115.649139 
L 224.153859 116.742424 
L 225.983186 111.726786 
L 227.812513 114.584915 
L 229.641841 111.662257 
L 231.471168 109.032242 
L 233.300495 120.127339 
L 235.129823 112.073292 
L 236.95915 114.029304 
L 238.788477 111.24343 
L 240.617805 117.835663 
L 244.276459 126.578659 
L 246.105787 120.299811 
L 247.935114 127.399548 
L 249.764441 164.179814 
L 251.593769 112.507998 
L 253.423096 106.197226 
L 255.252423 125.861596 
L 257.081751 112.875244 
L 258.911078 121.537244 
L 260.740405 106.689836 
L 262.569733 116.483327 
L 264.39906 111.299086 
L 268.057715 123.286039 
L 269.887042 309.774983 
L 271.716369 43.387273 
L 273.545697 97.651179 
L 275.375024 103.523858 
L 277.204351 119.145041 
L 279.033679 146.747432 
L 280.863006 103.289102 
L 282.692333 112.534013 
L 284.521661 117.109299 
L 286.350988 110.372624 
L 288.180315 116.833215 
L 290.009643 116.360909 
L 291.83897 116.354402 
L 293.668297 123.684152 
L 295.497625 126.824268 
L 297.326952 106.053034 
L 299.156279 122.183834 
L 300.985607 110.770966 
L 302.814934 118.068841 
L 304.644261 115.330383 
L 306.473589 119.39744 
L 310.132243 109.471068 
L 311.961571 117.421237 
L 313.790898 123.302214 
L 315.620225 109.104856 
L 317.449552 112.369653 
L 319.27888 108.835252 
L 321.108207 120.069129 
L 322.937534 108.257214 
L 324.766862 119.35857 
L 326.596189 112.601278 
L 328.425516 116.44 
L 330.254844 112.89062 
L 332.084171 113.873097 
L 333.913498 122.432036 
L 335.742826 114.271928 
L 337.572153 119.653693 
L 339.40148 138.347855 
L 341.230808 165.301541 
L 343.060135 315.662792 
L 344.889462 125.816153 
L 346.71879 274.082154 
L 348.548117 259.472629 
L 350.377444 102.559067 
L 352.206772 330.750891 
L 354.036099 90.990392 
L 355.865426 108.803709 
L 357.694754 294.555495 
L 359.524081 111.332777 
L 361.353408 115.462746 
L 363.182736 111.472534 
L 365.012063 114.970617 
L 366.84139 113.794643 
L 368.670718 107.603602 
L 370.500045 118.909086 
L 372.329372 120.447812 
L 374.1587 106.224573 
L 375.988027 116.19007 
L 377.817354 104.551358 
L 379.646682 119.410532 
L 381.476009 121.879228 
L 383.305336 121.378069 
L 385.134664 107.062268 
L 386.963991 118.166831 
L 388.793318 105.508703 
L 390.622646 145.184975 
L 392.451973 128.106343 
L 394.2813 133.594703 
L 396.110628 100.682127 
L 397.939955 105.386164 
L 399.769282 130.249191 
L 401.59861 133.847204 
L 403.427937 285.355491 
L 405.257264 104.180991 
L 407.086592 139.001501 
L 408.915919 53.061551 
L 410.745246 305.236856 
L 412.574574 355.42952 
L 414.403901 291.982967 
L 416.233228 344.382726 
L 418.062556 122.916377 
L 419.891883 104.035967 
L 421.72121 309.842573 
L 423.550538 139.467433 
L 425.379865 353.324348 
L 427.209192 338.696293 
L 429.03852 344.652529 
L 430.867847 287.609382 
L 432.697174 98.275264 
L 434.526502 134.06105 
L 436.355829 130.088501 
L 438.185156 345.601761 
L 440.014484 123.135186 
L 441.843811 313.720197 
L 443.673138 94.76397 
L 445.502466 106.587237 
L 447.331793 143.578698 
L 449.16112 314.176719 
L 450.990448 119.085818 
L 452.819775 109.978833 
L 454.649102 108.939382 
L 456.478429 125.534003 
L 458.307757 109.719773 
L 460.137084 117.914015 
L 461.966411 111.577373 
L 463.795739 121.996647 
L 465.625066 112.586627 
L 467.454393 135.343776 
L 469.283721 131.297635 
L 471.113048 124.747701 
L 472.942375 277.265156 
L 474.771703 126.285352 
L 476.60103 112.100289 
L 478.430357 108.190512 
L 480.259685 114.407501 
L 482.089012 116.190371 
L 483.918339 113.667112 
L 485.747667 115.905603 
L 487.576994 110.760603 
L 489.406321 117.160092 
L 493.064976 106.765268 
L 494.894303 120.480422 
L 496.723631 107.36196 
L 498.552958 128.047597 
L 500.382285 116.867443 
L 502.211613 118.557602 
L 504.04094 121.123046 
L 505.870267 93.68003 
L 507.699595 149.719865 
L 509.528922 161.021994 
L 511.358249 143.820171 
L 513.187577 149.838676 
L 515.016904 108.217035 
L 516.846231 143.049777 
L 518.675559 129.694218 
L 520.504886 324.070812 
L 522.334213 306.241246 
L 524.163541 292.83091 
L 525.992868 93.100995 
L 527.822195 124.956584 
L 529.651523 129.244272 
L 531.48085 103.979837 
L 533.310177 109.847223 
L 535.139505 137.133402 
L 536.968832 126.609773 
L 538.798159 133.792051 
L 540.627487 116.812284 
L 542.456814 113.476805 
L 544.286141 117.302149 
L 546.115469 111.792831 
L 547.944796 116.081781 
L 549.774123 113.291832 
L 551.603451 111.318293 
L 553.432778 113.062886 
L 555.262105 111.100041 
L 557.091433 120.115311 
L 558.92076 119.189239 
L 560.750087 108.859715 
L 562.579415 115.587377 
L 564.408742 116.287409 
L 566.238069 115.999208 
L 568.067397 127.623247 
L 569.896724 143.198648 
L 571.726051 108.932693 
L 573.555379 110.647838 
L 575.384706 118.620292 
L 577.214033 114.486449 
L 579.043361 116.444774 
L 580.872688 113.502187 
L 582.702015 117.215682 
L 584.531343 110.957623 
L 586.36067 124.545734 
L 588.189997 105.923728 
L 590.019325 107.700219 
L 591.848652 126.553381 
L 593.677979 158.60129 
L 595.507307 286.644386 
L 597.336634 312.775398 
L 599.165961 278.629312 
L 600.995288 96.806016 
L 602.824616 349.149223 
L 604.653943 299.151029 
L 606.48327 109.964615 
L 608.312598 119.10258 
L 610.141925 111.594437 
L 611.971252 143.081653 
L 613.80058 117.377822 
L 615.629907 121.643622 
L 617.459234 114.943334 
L 619.288562 122.024603 
L 621.117889 110.100541 
L 622.947216 117.197236 
L 624.776544 102.928986 
L 626.605871 99.569316 
L 628.435198 110.085514 
L 630.264526 106.039739 
L 632.093853 117.899061 
L 633.92318 166.947398 
L 635.752508 108.83674 
L 637.581835 125.571603 
L 639.411162 106.57274 
L 641.24049 119.108987 
L 643.069817 111.55695 
L 644.899144 119.811907 
L 646.728472 110.085439 
L 648.557799 118.826695 
L 650.387126 149.761606 
L 652.216454 105.442014 
L 654.045781 105.416233 
L 655.875108 116.738999 
L 657.704436 116.714619 
L 659.533763 118.892119 
L 661.36309 111.441968 
L 663.192418 111.427382 
L 665.021745 120.491589 
L 666.851072 107.399232 
L 668.6804 118.836649 
L 670.509727 112.615399 
L 672.339054 114.198021 
L 674.168382 139.222632 
L 675.997709 150.904231 
L 677.827036 328.88749 
L 679.656364 319.554932 
L 88.783636 113.339125 
L 90.612964 334.491419 
L 92.442291 98.3658 
L 94.271618 305.39109 
L 96.100946 349.266288 
L 97.930273 103.947906 
L 99.7596 146.133887 
L 101.588928 371.189001 
L 103.418255 110.583112 
L 105.247582 309.589224 
L 107.07691 99.4654 
L 108.906237 349.723029 
L 110.735564 298.137591 
L 112.564892 123.567622 
L 114.394219 109.791874 
L 116.223546 126.717596 
L 118.052874 327.191575 
L 119.882201 124.398925 
L 121.711528 285.691203 
L 123.540856 350.806559 
L 125.370183 306.119341 
L 127.19951 96.16911 
L 129.028838 143.116805 
L 130.858165 150.235258 
L 132.687492 363.6013 
L 134.51682 276.373403 
L 136.346147 127.243753 
L 138.175474 94.837824 
L 140.004802 115.194506 
L 141.834129 123.186896 
L 143.663456 373.532727 
L 145.492784 299.175661 
L 147.322111 102.931899 
L 149.151438 113.080873 
L 150.980766 117.643561 
L 152.810093 113.3947 
L 154.63942 118.529869 
L 156.468748 117.696205 
L 158.298075 114.68244 
L 160.127402 113.770831 
L 161.95673 109.871355 
L 163.786057 120.778324 
L 165.615384 109.326869 
L 169.274039 115.868407 
L 171.103366 111.367318 
L 172.932693 121.011578 
L 174.762021 110.100123 
L 176.591348 137.470544 
L 178.420675 116.730247 
L 180.250003 120.986045 
L 182.07933 121.821103 
L 183.908657 115.995952 
L 185.737985 128.623102 
L 187.567312 110.993395 
L 189.396639 111.532278 
L 191.225967 115.648527 
L 193.055294 116.677793 
L 194.884621 119.522625 
L 196.713949 106.800861 
L 198.543276 123.674367 
L 200.372603 111.984941 
L 202.201931 112.213229 
L 204.031258 97.675987 
L 205.860585 110.593549 
L 207.689913 101.960291 
L 209.51924 101.977548 
L 211.348567 137.954592 
L 213.177895 311.950315 
L 215.007222 111.309533 
L 216.836549 116.769268 
L 218.665877 105.604113 
L 220.495204 120.686855 
L 222.324531 115.856839 
L 224.153859 115.794803 
L 225.983186 111.680687 
L 227.812513 115.314914 
L 229.641841 110.715322 
L 231.471168 109.385793 
L 233.300495 120.233865 
L 235.129823 112.884214 
L 236.95915 114.764146 
L 238.788477 108.914159 
L 240.617805 117.86439 
L 242.447132 121.711247 
L 244.276459 126.267297 
L 246.105787 119.773109 
L 247.935114 128.174211 
L 249.764441 163.108847 
L 251.593769 108.985401 
L 253.423096 106.965551 
L 255.252423 126.027952 
L 257.081751 113.733866 
L 258.911078 119.229285 
L 260.740405 109.463301 
L 262.569733 115.208228 
L 264.39906 112.094562 
L 266.228387 116.784614 
L 268.057715 124.503184 
L 269.887042 308.715557 
L 271.716369 45.486201 
L 273.545697 96.015068 
L 275.375024 102.673892 
L 277.204351 118.060212 
L 279.033679 149.765231 
L 280.863006 102.341106 
L 282.692333 111.546826 
L 284.521661 118.991481 
L 286.350988 108.714153 
L 288.180315 118.785374 
L 290.009643 116.837003 
L 291.83897 115.084038 
L 293.668297 125.433815 
L 295.497625 126.119082 
L 297.326952 105.759917 
L 299.156279 121.679117 
L 300.985607 110.668549 
L 302.814934 117.521885 
L 304.644261 117.734036 
L 306.473589 117.354013 
L 308.302916 115.737458 
L 310.132243 110.037091 
L 311.961571 117.77276 
L 313.790898 124.161736 
L 315.620225 109.925852 
L 317.449552 112.123645 
L 319.27888 108.230939 
L 321.108207 119.814175 
L 322.937534 109.094517 
L 324.766862 120.0815 
L 326.596189 111.643368 
L 328.425516 117.754221 
L 330.254844 113.656741 
L 332.084171 112.449045 
L 333.913498 122.68316 
L 335.742826 115.005305 
L 337.572153 118.852548 
L 339.40148 136.907475 
L 341.230808 163.622542 
L 343.060135 322.637791 
L 344.889462 281.303512 
L 346.71879 129.88945 
L 348.548117 335.247576 
L 350.377444 121.041234 
L 352.206772 317.654832 
L 354.036099 92.437834 
L 355.865426 109.69598 
L 357.694754 294.562161 
L 359.524081 110.459883 
L 361.353408 115.661567 
L 363.182736 111.27909 
L 365.012063 115.644768 
L 366.84139 114.218521 
L 368.670718 107.27753 
L 370.500045 118.830032 
L 372.329372 119.602733 
L 374.1587 107.181416 
L 375.988027 114.093771 
L 377.817354 107.129675 
L 379.646682 119.803991 
L 381.476009 120.598581 
L 383.305336 120.996067 
L 385.134664 105.824194 
L 386.963991 117.72917 
L 388.793318 104.831865 
L 390.622646 145.162141 
L 392.451973 128.033731 
L 394.2813 133.179405 
L 396.110628 101.767823 
L 397.939955 103.635051 
L 399.769282 129.34046 
L 401.59861 132.572123 
L 403.427937 287.288959 
L 405.257264 104.194796 
L 407.086592 137.093713 
L 408.915919 53.850806 
L 410.745246 306.278616 
L 412.574574 354.302075 
L 414.403901 289.235613 
L 416.233228 344.698132 
L 418.062556 122.387845 
L 419.891883 105.310185 
L 421.72121 310.921245 
L 423.550538 139.482773 
L 425.379865 355.480099 
L 427.209192 340.680072 
L 429.03852 346.570951 
L 430.867847 287.698061 
L 432.697174 98.426065 
L 434.526502 134.728977 
L 436.355829 129.732212 
L 438.185156 346.25633 
L 440.014484 125.184857 
L 441.843811 313.959236 
L 443.673138 93.693401 
L 445.502466 107.334464 
L 447.331793 143.361251 
L 449.16112 313.864451 
L 450.990448 119.132 
L 452.819775 110.648279 
L 454.649102 110.334904 
L 456.478429 124.741363 
L 458.307757 109.870939 
L 460.137084 115.742766 
L 461.966411 111.734158 
L 463.795739 122.993578 
L 465.625066 111.652783 
L 467.454393 136.630336 
L 469.283721 130.419156 
L 471.113048 124.830377 
L 472.942375 279.029781 
L 474.771703 124.479934 
L 476.60103 113.336134 
L 478.430357 108.590444 
L 480.259685 114.475702 
L 482.089012 115.724102 
L 483.918339 113.046978 
L 485.747667 116.73407 
L 487.576994 110.105494 
L 489.406321 118.026853 
L 491.235649 111.690543 
L 493.064976 107.157647 
L 494.894303 120.925468 
L 496.723631 105.584055 
L 498.552958 127.625354 
L 500.382285 117.461569 
L 502.211613 118.323665 
L 504.04094 119.035965 
L 505.870267 94.227203 
L 507.699595 149.57284 
L 509.528922 175.207493 
L 511.358249 116.03368 
L 513.187577 157.862459 
L 515.016904 108.009708 
L 516.846231 135.103909 
L 518.675559 116.889178 
L 520.504886 293.122046 
L 522.334213 102.058799 
L 524.163541 291.11639 
L 525.992868 97.206477 
L 527.822195 122.736093 
L 529.651523 128.823678 
L 531.48085 106.762233 
L 533.310177 109.225058 
L 535.139505 137.003395 
L 536.968832 126.161938 
L 538.798159 133.311995 
L 540.627487 116.154035 
L 542.456814 114.513287 
L 544.286141 116.632275 
L 546.115469 113.168457 
L 547.944796 115.194606 
L 549.774123 114.545414 
L 551.603451 110.915301 
L 553.432778 113.256989 
L 555.262105 110.300308 
L 557.091433 120.149674 
L 558.92076 118.987609 
L 560.750087 109.088864 
L 562.579415 113.559836 
L 564.408742 117.202727 
L 566.238069 116.321608 
L 568.067397 127.337793 
L 569.896724 142.62184 
L 571.726051 108.043841 
L 573.555379 113.492524 
L 575.384706 116.638272 
L 577.214033 114.078152 
L 579.043361 116.012501 
L 580.872688 113.171204 
L 582.702015 117.434237 
L 584.531343 111.570589 
L 586.36067 125.440922 
L 588.189997 106.198816 
L 590.019325 106.473786 
L 591.848652 126.720903 
L 593.677979 159.013946 
L 595.507307 287.424655 
L 597.336634 312.526064 
L 599.165961 279.283797 
L 600.995288 326.970478 
L 602.824616 349.73968 
L 604.653943 299.464322 
L 606.48327 110.150915 
L 608.312598 119.849388 
L 610.141925 111.117019 
L 611.971252 141.17696 
L 613.80058 116.665647 
L 615.629907 122.034777 
L 617.459234 114.97376 
L 619.288562 120.701032 
L 621.117889 112.445733 
L 622.947216 117.90004 
L 624.776544 102.497907 
L 626.605871 98.08899 
L 628.435198 107.430175 
L 630.264526 106.2621 
L 632.093853 115.259479 
L 633.92318 167.316957 
L 635.752508 108.127648 
L 637.581835 125.236805 
L 639.411162 106.632258 
L 641.24049 119.205581 
L 643.069817 109.797388 
L 644.899144 121.376934 
L 646.728472 109.196352 
L 648.557799 118.507168 
L 650.387126 149.368913 
L 652.216454 104.070596 
L 654.045781 105.919917 
L 655.875108 116.893691 
L 657.704436 116.762558 
L 659.533763 119.663386 
L 661.36309 111.311352 
L 663.192418 111.262148 
L 665.021745 119.734354 
L 666.851072 106.737954 
L 668.6804 119.134024 
L 670.509727 113.349579 
L 672.339054 113.548089 
L 674.168382 135.775177 
L 675.997709 141.861656 
L 677.827036 316.745996 
L 679.656364 364.702284 
L 679.656364 364.702284 
" clip-path="url(#p0a84ee0ba2)" style="fill: none; stroke: #0000ff; stroke-width: 1.5; stroke-linecap: square"/>
   </g>
   <g id="patch_3">
    <path d="M 59.24 390.04 
L 59.24 26.88 
" style="fill: none; stroke: #000000; stroke-width: 0.8; stroke-linejoin: miter; stroke-linecap: square"/>
   </g>
   <g id="patch_4">
    <path d="M 709.2 390.04 
L 709.2 26.88 
" style="fill: none; stroke: #000000; stroke-width: 0.8; stroke-linejoin: miter; stroke-linecap: square"/>
   </g>
   <g id="patch_5">
    <path d="M 59.24 390.04 
L 709.2 390.04 
" style="fill: none; stroke: #000000; stroke-width: 0.8; stroke-linejoin: miter; stroke-linecap: square"/>
   </g>
   <g id="patch_6">
    <path d="M 59.24 26.88 
L 709.2 26.88 
" style="fill: none; stroke: #000000; stroke-width: 0.8; stroke-linejoin: miter; stroke-linecap: square"/>
   </g>
   <g id="text_17">
    <text style="font-size: 10px; font-family: 'DejaVu Sans', 'Bitstream Vera Sans', 'Computer Modern Sans Serif', 'Lucida Grande', 'Verdana', 'Geneva', 'Lucid', 'Arial', 'Helvetica', 'Avant Garde', sans-serif; text-anchor: start" x="65.7396" y="38.110037" transform="rotate(-0 65.7396 38.110037)">1GZM.pdb</text>
   </g>
   <g id="text_18">
    <text style="font-size: 12px; font-family: 'DejaVu Sans', 'Bitstream Vera Sans', 'Computer Modern Sans Serif', 'Lucida Grande', 'Verdana', 'Geneva', 'Lucid', 'Arial', 'Helvetica', 'Avant Garde', sans-serif; text-anchor: middle" x="384.22" y="20.88" transform="rotate(-0 384.22 20.88)">Adjacent plane signed angles</text>
   </g>
  </g>
 </g>
 <defs>
  <clipPath id="p0a84ee0ba2">
   <rect x="59.24" y="26.88" width="649.96" height="363.16"/>
  </clipPath>
 </defs>
</svg>
